<svg width="14" height="14" fill="none" xmlns="http://www.w3.org/2000/svg"><path d="M11.43 1.59c-.24-.2-.5-.38-.75-.55l-.47.75c.24.14.46.3.67.47l.55-.67ZM12.7 2.94c-.18-.25-.38-.5-.59-.72l-.64.6c.19.2.36.41.52.63l.71-.5Z" fill="#282828"/><path d="m13.2 3.74-.78.4A6.12 6.12 0 1 1 9.5 1.42l.35-.8a7 7 0 1 0 3.34 3.13Z" fill="#282828"/><path d="M6.56 4.53c-.33-.37-.8-.59-1.3-.59h-2.2v6.12h2.2A1.75 1.75 0 0 0 6.4 7c.72-.64.8-1.74.15-2.47ZM5.26 9.2H3.93V7.44h1.31a.87.87 0 0 1 0 1.75Zm0-2.63H3.93V4.82h1.31a.87.87 0 0 1 0 1.74ZM11.81 7.88a2.09 2.09 0 0 0-1.97-2.19 2.09 2.09 0 0 0-1.96 2.19 2.09 2.09 0 0 0 1.96 2.18c.5 0 .98-.2 1.33-.56l-.62-.62a1 1 0 0 1-.7.31c-.5-.03-.93-.39-1.04-.88h3v-.43Zm-3-.44c.11-.49.53-.84 1.03-.87.5.03.92.38 1.03.87H8.81ZM10.94 3.94H8.75v.88h2.19v-.88Z" fill="#282828"/></svg>