<svg width="32" height="32" fill="none" xmlns="http://www.w3.org/2000/svg"><g clip-path="url(#a)"><path d="M16.43 0C7.66 0 3 5.62 3 11.75c0 2.84 1.59 6.39 4.13 7.51.73.33.63-.07 1.25-2.46a.57.57 0 0 0-.13-.55C4.6 12.05 7.54 3.4 15.92 3.4c12.12 0 9.85 16.77 2.1 16.77-2 0-3.48-1.56-3-3.5.56-2.31 1.68-4.8 1.68-6.46 0-4.2-6.25-3.58-6.25 1.98 0 1.72.6 2.88.6 2.88l-2.38 9.65c-.63 2.57.08 6.73.15 7.09.03.2.26.26.38.1.2-.26 2.63-3.73 3.31-6.24l1.27-4.62c.67 1.21 2.6 2.22 4.66 2.22C24.57 23.27 29 17.9 29 11.2 28.98 4.8 23.5 0 16.43 0Z" fill="#000"/></g><defs><clipPath id="a"><path fill="#fff" d="M0 0h32v32H0z"/></clipPath></defs></svg>