<svg width="48" height="48" fill="none" xmlns="http://www.w3.org/2000/svg"><g clip-path="url(#a)"><path d="M45.94 1.12a3.8 3.8 0 0 0-5.1-.26L27.4 11.83H4.7A3.76 3.76 0 0 0 .93 15.6v22.63a3.76 3.76 0 0 0 3.75 3.75h10.67v3.22H13A1.4 1.4 0 0 0 13 48h15.04a1.4 1.4 0 0 0 0-2.81h-2.36v-3.22h10.67a3.76 3.76 0 0 0 3.75-3.75V13.7l6.1-7.48a3.8 3.8 0 0 0-.26-5.1ZM26.5 17.46c.04-.85.43-1.6 1.09-2.14l2.34-1.92 3.73 3.74-1.91 2.35a2.93 2.93 0 0 1-2.15 1.08 2.92 2.92 0 0 1-2.24-.86c-.6-.6-.9-1.4-.86-2.25Zm-1.13 9.07c-.62.63-1.66.91-3.08.86-1.08-.05-2 .03-2.79.17.14-.78.22-1.7.17-2.78-.05-1.43.23-2.47.86-3.09a3.4 3.4 0 0 1 4.84 0 3.43 3.43 0 0 1 0 4.84Zm-2.5 18.66h-4.7v-3.22h4.7v3.22Zm14.42-6.97c0 .51-.42.94-.94.94H4.69a.94.94 0 0 1-.94-.94v-1.2h33.54v1.2Zm0-4.02H3.75V15.6c0-.52.42-.94.94-.94h19.82a5.78 5.78 0 0 0-.82 3.27 6.2 6.2 0 0 0-5.15 1.78c-1.2 1.2-1.77 2.95-1.68 5.19.12 2.98-.87 4.18-.94 4.27a1.4 1.4 0 0 0 1.99 1.98c.08-.07 1.28-1.06 4.26-.94 2.24.09 3.99-.48 5.19-1.68 1.4-1.4 2-3.31 1.78-5.14a5.77 5.77 0 0 0 4.79-2.11l3.36-4.13V34.2Zm-19.36-3.08-.02.02.02-.02Zm-1.99-1.99-.02.02.02-.02ZM44.02 4.45l-8.57 10.5-3.33-3.33 10.5-8.58a1 1 0 0 1 1.4 1.4Z" fill="#282828"/></g><defs><clipPath id="a"><path fill="#fff" d="M0 0h48v48H0z"/></clipPath></defs></svg>