<svg width="44" height="44" fill="none" xmlns="http://www.w3.org/2000/svg"><path d="M0 2.53v38.94h44V2.53H0Zm29.17 2.58-4.85 5.85H2.58V5.11h26.59Zm12.25 33.78H2.58V13.54h22.95l6.99-8.43h8.9v33.78Z" fill="#282828"/><path d="M5.53 6.75H8.1v2.6H5.53v-2.6ZM10.28 6.75h2.58v2.6h-2.58v-2.6ZM15.04 6.75h2.58v2.6h-2.58v-2.6ZM17.58 27.97a2.2 2.2 0 0 1-4.38 0v-8.03h-2.58v8.03a4.77 4.77 0 0 0 9.54 0v-8.03h-2.58v8.03ZM29.9 19.9l-2.1 3.78-2.11-3.79h-2.95l3.58 6.45-3.58 6.45h2.95l2.1-3.8 2.1 3.8h2.96l-3.58-6.45 3.58-6.45H29.9Z" fill="#282828"/></svg>