<svg width="14" height="14" fill="none" xmlns="http://www.w3.org/2000/svg"><path d="M7 0C3.15 0 0 3.15 0 7s3.15 7 7 7 7-3.15 7-7-3.15-7-7-7Zm4.75 3.05a6.15 6.15 0 0 1 1.43 3.85 8.77 8.77 0 0 0-4.52.18 19.6 19.6 0 0 0-.73-1.72c1.48-.57 3.08-1.4 3.82-2.31ZM7 .82c1.6 0 3.07.62 4.18 1.63-.43.58-1.66 1.44-3.62 2.17a17.83 17.83 0 0 0-2.46-3.5c.6-.2 1.24-.3 1.9-.3Zm-2.7.63c.96 1.03 1.8 2.2 2.48 3.44-2.04.66-4.11.93-5.81.76a6.2 6.2 0 0 1 3.32-4.2ZM.81 7c0-.18 0-.36.02-.54.38.04.77.06 1.17.06 1.6 0 3.4-.3 5.15-.89.27.55.51 1.12.72 1.7-.68.24-1.35.56-1.98.93a7.35 7.35 0 0 0-3.12 3.25A6.16 6.16 0 0 1 .82 7ZM7 13.18a6.15 6.15 0 0 1-3.55-1.13C3.76 11 4.82 9.86 6.32 8.96c.53-.31 1.16-.61 1.83-.85.48 1.5.78 3.1.87 4.73-.63.22-1.31.34-2.02.34Zm2.82-.68c-.12-1.6-.41-3.15-.89-4.64a8.21 8.21 0 0 1 4.2-.12 6.2 6.2 0 0 1-3.31 4.76Z" fill="#FF4C60"/></svg>