<svg aria-hidden="true" style="position:absolute;width:0;height:0;overflow:hidden" xmlns="http://www.w3.org/2000/svg"><defs><symbol id="icon-envelop" viewBox="0 0 32 32"><path d="M28.54 3.3H3.46A3.15 3.15 0 0 0 .33 6.46v.04L.32 25.53c0 1.73 1.4 3.15 3.13 3.16h25.1a3.17 3.17 0 0 0 3.13-3.16V6.48c0-1.74-1.4-3.15-3.14-3.17zm0 6.35L16 17.6 3.46 9.65V6.48L16 14.4l12.54-7.93v3.17z"/></symbol><symbol id="icon-facebook" viewBox="0 0 32 32"><path d="M18 11V7a2 2 0 0 1 2-2h2V0h-4a6 6 0 0 0-6 6v5H8v5h4v16h6V16h4l2-5h-6z"/></symbol><symbol id="icon-header1" viewBox="0 0 32 32"><path d="M16 0C7.2 0 0 7.2 0 16s7.2 16 16 16 16-7.2 16-16S24.8 0 16 0zm10.86 6.97a13.97 13.97 0 0 1 3.26 8.79v.01a20.04 20.04 0 0 0-10.47.45l.14-.04a42.84 42.84 0 0 0-1.78-4.2l.11.27c3.39-1.3 7.04-3.2 8.74-5.28zM16 1.87c3.66 0 7.02 1.42 9.55 3.73-.98 1.33-3.79 3.3-8.27 4.96a41 41 0 0 0-5.66-8.04l.04.04c1.37-.46 2.83-.69 4.34-.69zM9.83 3.31a39.35 39.35 0 0 1 5.67 7.87c-4.66 1.5-9.4 2.12-13.28 1.73.98-4.25 3.78-7.7 7.5-9.56l.09-.04zM1.85 16c0-.41 0-.82.05-1.23.87.09 1.76.13 2.67.13 3.66 0 7.77-.68 11.77-2.03A38.82 38.82 0 0 1 18 16.76a26.33 26.33 0 0 0-4.53 2.12 16.93 16.93 0 0 0-7.09 7.33l-.04.1a14.05 14.05 0 0 1-4.46-10.28V16zM16 30.13a14 14 0 0 1-8.16-2.62l.05.03c.7-2.4 3.13-5 6.56-7.06 1.2-.7 2.65-1.4 4.18-1.94a43.49 43.49 0 0 1 1.99 10.8c-1.44.51-3 .79-4.62.79zm6.45-1.56a45.6 45.6 0 0 0-2.04-10.6 18.8 18.8 0 0 1 9.73-.25l-.13-.03a14.2 14.2 0 0 1-7.49 10.84l-.07.04z"/></symbol><symbol id="icon-header2" viewBox="0 0 32 32"><path d="M26.13 3.63c-.55-.45-1.15-.86-1.72-1.25l-1.07 1.71c.55.32 1.05.69 1.53 1.07l1.26-1.53zm2.9 3.09c-.41-.57-.87-1.14-1.35-1.65l-1.46 1.37c.43.46.82.94 1.19 1.44l1.62-1.14z"/><path d="m30.17 8.55-1.78.91a13.99 13.99 0 1 1-6.59-6.18l-.09-.04.8-1.82a16 16 0 1 0 7.6 7.07l.04.08z"/><path d="M15 10.35A3.99 3.99 0 0 0 12.01 9H7v14h5.03a4 4 0 0 0 2.61-7 3.99 3.99 0 0 0 .34-5.65zm-2.98 10.68H8.98V17h3a2 2 0 1 1 0 4zm0-6.01H8.98v-4h3a1.99 1.99 0 1 1 0 3.98zm14.97 3 .01-.25a4.78 4.78 0 0 0-4.5-4.76A4.78 4.78 0 0 0 18 18.02v-.01.21A4.78 4.78 0 0 0 22.48 23h.01c1.14 0 2.24-.45 3.04-1.28l-1.42-1.41c-.4.42-.97.69-1.6.7a2.6 2.6 0 0 1-2.37-2h6.85V18zM20.14 17a2.56 2.56 0 0 1 2.35-2c1.14.08 2.1.88 2.36 2h-4.71zM25 9H20v2h5v-2z"/></symbol><symbol id="icon-instagram" viewBox="0 0 32 32"><path d="M22 32H10A10 10 0 0 1 0 22V10A10 10 0 0 1 10 0h12a10 10 0 0 1 10 10v12a10 10 0 0 1-10 10zm7-22a7.02 7.02 0 0 0-7-7H10c-3.86 0-7 3.14-7 7v12a7.01 7.01 0 0 0 7 7h12A7.01 7.01 0 0 0 29 22V10z"/><path d="M16 24a8 8 0 0 1 0-16 8 8 0 0 1 0 16zm0-13h-.24a5 5 0 1 0 .26 10 5.01 5.01 0 0 0 0-10H16zm8.6 12.53h.12a1.07 1.07 0 1 1-.12 2.13 1.07 1.07 0 0 1 0-2.13z"/></symbol><symbol id="icon-phone" viewBox="0 0 32 32"><path d="m30.6 23.2-4.31-4.3c-1.54-1.53-4.16-.91-4.77 1.08a2.94 2.94 0 0 1-3.41 1.84h.02c-3.07-.76-7.23-4.76-8-7.98-.46-1.38.46-2.92 1.85-3.38 2-.61 2.61-3.22 1.08-4.76L8.75 1.4C7.52.34 5.67.34 4.6 1.4L1.67 4.33c-2.92 3.07.31 11.2 7.54 18.42s15.38 10.6 18.46 7.53l2.92-2.92c1.08-1.23 1.08-3.07 0-4.15z"/></symbol><symbol id="icon-pinterest" viewBox="0 0 32 32"><path d="M16.43 0C7.66 0 3 5.62 3 11.75c0 2.84 1.59 6.39 4.13 7.51.73.33.63-.07 1.25-2.46l.02-.16a.57.57 0 0 0-.15-.39C4.6 12.05 7.54 3.4 15.92 3.4c12.12 0 9.85 16.77 2.1 16.77-2 0-3.48-1.56-3-3.5.56-2.31 1.68-4.8 1.68-6.46 0-4.2-6.25-3.58-6.25 1.98 0 1.72.6 2.88.6 2.88l-2.38 9.65c-.63 2.57.08 6.73.15 7.09.03.2.26.26.38.1.2-.26 2.63-3.73 3.3-6.24l1.28-4.62c.67 1.21 2.6 2.22 4.66 2.22C24.57 23.27 29 17.9 29 11.2 28.98 4.8 23.5 0 16.43 0z"/></symbol><symbol id="icon-right-arrow" viewBox="0 0 32 32"><path stroke-width="1.68" d="M9.26 1.68 22.74 16 9.26 30.32"/></symbol><symbol id="icon-right-arrow-2" viewBox="0 0 32 32"><path d="M30.4 16.86a1.23 1.23 0 0 0 0-1.72l-7.83-7.85a1.23 1.23 0 1 0-1.72 1.74L27.77 16l-6.95 6.97a1.23 1.23 0 1 0 1.75 1.72l7.83-7.83zM0 17.23h29.54v-2.46H0v2.46z"/></symbol><symbol id="icon-search" viewBox="0 0 32 32"><path d="M20.67 18.67H19.6l-.37-.36a8.67 8.67 0 1 0-.92.92l-.01.01.36.37v1.06l6.66 6.65 2-1.99-6.66-6.66zm-8 0h-.3a6 6 0 1 1 .3-11.99h-.02a6 6 0 0 1 .03 11.99h-.01z"/></symbol><symbol id="icon-twitter" viewBox="0 0 32 32"><path stroke-linejoin="round" stroke-width="1.88" d="M31.06 6.66c-1.12.5-2.32.82-3.56.97a6.17 6.17 0 0 0 2.7-3.36l.02-.04c-1.13.68-2.44 1.2-3.83 1.48l-.08.01a6.17 6.17 0 0 0-10.7 4.22c0 .5.05.99.16 1.45v-.04a17.47 17.47 0 0 1-12.7-6.42l-.03-.04a6.17 6.17 0 0 0 1.88 8.24l.02.02a6.08 6.08 0 0 1-2.82-.78l.03.02v.06a6.2 6.2 0 0 0 4.9 6.06h.05a6.03 6.03 0 0 1-2.84.09h.04a6.24 6.24 0 0 0 5.76 4.32h.01a12.33 12.33 0 0 1-9.19 2.53h.06a17.22 17.22 0 0 0 9.43 2.79h.04C21.78 28.24 28 18.82 28 10.66c0-.27 0-.53-.03-.8a12.2 12.2 0 0 0 3.1-3.2z"/></symbol><symbol id="icon-work1" viewBox="0 0 32 32"><path d="M0 1.84v28.32h32V1.84H0zm21.21 1.88L17.7 7.97H1.88V3.72h19.34zm8.91 24.56H1.88V9.85h16.69l5.08-6.13h6.47v24.56z"/><path d="M4.02 4.9H5.9v1.9H4.02V4.9zm3.46 0h1.87v1.9H7.48V4.9zm3.46 0h1.87v1.9h-1.87V4.9zm1.85 15.44a1.6 1.6 0 0 1-3.19 0V14.5H7.72v5.84a3.47 3.47 0 1 0 6.94 0V14.5h-1.88v5.84zm8.96-5.87-1.53 2.75-1.54-2.75h-2.14l2.6 4.69-2.6 4.69h2.14l1.53-2.77 1.53 2.77h2.15l-2.6-4.7 2.6-4.68h-2.15z"/></symbol><symbol id="icon-work2" viewBox="0 0 32 32"><path d="M30.63.75a2.53 2.53 0 0 0-3.4-.17l-8.96 7.3H3.13A2.5 2.5 0 0 0 .62 10.4v15.1a2.5 2.5 0 0 0 2.5 2.5h7.11v2.15H8.67a.93.93 0 0 0 0 1.86h10.02a.94.94 0 1 0 0-1.87h-1.57v-2.15h7.11a2.5 2.5 0 0 0 2.5-2.5V9.13l4.07-4.98a2.52 2.52 0 0 0-.17-3.4zM17.67 11.64c.02-.57.28-1.07.72-1.43l1.56-1.28 2.5 2.5-1.28 1.56c-.35.42-.86.7-1.43.72h-.12a1.96 1.96 0 0 1-1.96-2.08zm-.76 6.05c-.41.42-1.1.6-2.05.57a8.4 8.4 0 0 0-1.86.11c.1-.52.15-1.13.11-1.85-.03-.95.16-1.65.58-2.06a2.26 2.26 0 0 1 3.22 0 2.28 2.28 0 0 1 0 3.22zm-1.66 12.44H12.1v-2.15h3.14v2.15zm9.61-4.65c0 .34-.28.63-.63.63H3.13a.63.63 0 0 1-.63-.63v-.8h22.36v.8zm0-2.68H2.5V10.4c0-.35.28-.63.63-.63h13.21a3.82 3.82 0 0 0-.55 2.2v-.02a4.12 4.12 0 0 0-3.43 1.19c-.8.8-1.18 1.97-1.12 3.46.08 1.99-.58 2.79-.63 2.85a.94.94 0 0 0 1.33 1.32c.05-.05.85-.71 2.84-.63 1.5.06 2.66-.32 3.46-1.12a4.15 4.15 0 0 0 1.19-3.43h.21c1.2 0 2.27-.54 2.98-1.4l2.24-2.76V22.8zm-12.9-2.05zm-1.33-1.33zM29.35 2.97l-5.72 7-2.22-2.22 7-5.72a.67.67 0 0 1 .93.94z"/></symbol><symbol id="icon-work3" viewBox="0 0 32 32"><path d="M29.18 0H2.81A2.82 2.82 0 0 0 0 2.81V29.2A2.82 2.82 0 0 0 2.8 32H29.2A2.82 2.82 0 0 0 32 29.2V2.8A2.82 2.82 0 0 0 29.19 0zm.95 29.18c0 .53-.42.95-.94.95H2.8a.94.94 0 0 1-.94-.94V2.8c0-.51.43-.94.95-.94h26.37c.51 0 .94.43.94.94V29.2z"/><path d="M22.56 13.19c-.68 0-1.32.18-1.87.5V8.5a.94.94 0 0 0-1.88 0V23.5a.94.94 0 0 0 1.88 0v-6.54a1.88 1.88 0 0 1 3.75-.01v6.56a.94.94 0 0 0 1.87 0v-6.56a3.75 3.75 0 0 0-3.75-3.75zM16 17.88a.94.94 0 0 0-.94.93 3.76 3.76 0 0 1-7.5.01v-5.63a3.76 3.76 0 0 1 7.5-.01.94.94 0 0 0 1.88 0 5.63 5.63 0 0 0-11.25 0v5.63a5.63 5.63 0 0 0 11.25.01.95.95 0 0 0-.94-.95z"/></symbol><symbol id="icon-work4" viewBox="0 0 32 32"><path d="m31.59 18.96-.03-.01v-.01l-3.2-3.29a.5.5 0 0 0-.36-.15h-4V9.43l2.23 1.48.02.02c.02.02.05.02.07.03l.04.02a.49.49 0 0 0 .27 0l.04-.01.07-.03.04-.03.06-.04.04-.05.04-.04v-.01l.01-.01 3-5 .03-.08c0-.03.03-.05.03-.09V5.4l-.03-.09-.04-.08-.07-.08-.05-.06-5.52-4.01-.1-.04L24.1 1 24.07 1 20.06.5h-8.12l-4 .5H7.9c-.03 0-.06.03-.1.04l-.08.04-.03.01-5.5 4-.05.07a.17.17 0 0 0-.06.07l-.04.08-.03.09-.01.1v.09l.04.1c0 .02 0 .04.03.07l3 5.01.05.05.03.04.06.05.04.03.08.03.04.01a.49.49 0 0 0 .26 0l.04-.02.07-.03.03-.01L8 9.42v6.07H4a.5.5 0 0 0-.18.04.5.5 0 0 0-.18.12l-3.2 3.28v.02l-.03.01C.16 19.23 0 19.6 0 20v10c0 .83.67 1.5 1.5 1.5h29c.83 0 1.5-.68 1.5-1.5V20c0-.4-.16-.76-.42-1.02v-.02zM9 17V8.5L9 8.46a.54.54 0 0 0-.06-.2l-.01-.04-.04-.03a.45.45 0 0 0-.15-.12.47.47 0 0 0-.19-.06L8.5 8h-.05a.5.5 0 0 0-.19.07l-.04.01L5.66 9.8l-2.5-4.16L8.2 1.98l3.34-.41a4.51 4.51 0 0 0 8.92.02v-.02l3.36.41 5.03 3.66-2.5 4.16-2.56-1.72-.04-.01a.47.47 0 0 0-.1-.04.51.51 0 0 0-.09-.02L23.5 8h-.05c-.1.02-.19.05-.26.11a.46.46 0 0 0-.07.08l-.03.03c-.02.01-.02.03-.02.04a.47.47 0 0 0-.06.19V17H9zm3.53-15.5h6.92a3.5 3.5 0 0 1-6.91.02V1.5zM8 17H7a.5.5 0 0 0 0 1h18a.5.5 0 0 0 0-1h-1v-.5h3.78l1.95 2H2.27l1.95-2H8v.5zM4.5 30h23v.5h-23V30zM31 30a.5.5 0 0 1-.5.5h-2v-1a.5.5 0 0 0-.5-.5H4a.5.5 0 0 0-.5.5v1h-2A.5.5 0 0 1 1 30V20c0-.14.05-.26.14-.34l.01-.02a.5.5 0 0 1 .35-.14h29a.5.5 0 0 1 .35.14v.01A.5.5 0 0 1 31 20v10z"/><path d="M4.02 22a.5.5 0 0 0-.5.5.5.5 0 0 0 1 0 .5.5 0 0 0-.5-.5zm2 0H6a.5.5 0 0 0-.5.5.5.5 0 0 0 1 0 .5.5 0 0 0-.49-.5zm22 0a.5.5 0 0 0-.5.5.5.5 0 0 0 1 0 .5.5 0 0 0-.5-.5zm-2 0H26a.5.5 0 0 0-.5.5.5.5 0 0 0 1 0 .5.5 0 0 0-.49-.5zM21 21H11a.5.5 0 0 0-.5.5v2c0 .28.23.5.5.5h10a.5.5 0 0 0 .5-.5v-2a.5.5 0 0 0-.5-.5zm-.5 2h-9v-1h9v1z"/></symbol><symbol id="icon-work5" viewBox="0 0 32 32"><path d="M15.97 9.55c.85 0 1.54-.7 1.54-1.54v-.63a.65.65 0 0 0-.65-.65h-1.77c-.36 0-.66.3-.66.65v.63c0 .85.7 1.54 1.54 1.54zm-.61-1.89h1.22v.35a.6.6 0 1 1-1.22 0v-.35zm4.59.05c.26 0 .47-.2.47-.46v-.7a.47.47 0 0 0-.94 0v.7c0 .26.21.47.47.47zm-7.96 0c.26 0 .47-.2.47-.46v-.7a.47.47 0 0 0-.94 0v.7c0 .26.21.47.47.47zm7.61 1.35h.7a.47.47 0 0 0 0-.94h-.7a.47.47 0 0 0 0 .94zm-7.97 0h.71a.47.47 0 0 0 0-.94h-.7a.47.47 0 0 0 0 .94z"/><path d="M25.34 7.73c.27 0 .47-.2.47-.47V2.42A2.42 2.42 0 0 0 23.4 0H8.55a2.43 2.43 0 0 0-2.42 2.42v27.16A2.42 2.42 0 0 0 8.55 32h14.84a2.42 2.42 0 0 0 2.42-2.42V9a.47.47 0 0 0-.94 0v20.57c0 .82-.66 1.48-1.48 1.48H8.55c-.82 0-1.49-.66-1.49-1.48V2.42c0-.82.67-1.48 1.49-1.48h14.84c.82 0 1.48.66 1.48 1.48v4.84c0 .27.22.47.47.47z"/><path d="M23.94 24.98V4.52a.78.78 0 0 0-.77-.77H8.77a.77.77 0 0 0-.77.77v20.46c0 .43.34.77.77.77h14.4c.42 0 .77-.34.77-.77zM23 24.8H8.94V4.68H23v20.13zm-9.2 3.6a2.18 2.18 0 0 0 4.35 0 2.18 2.18 0 0 0-4.36 0zm3.41 0a1.24 1.24 0 1 1-2.49 0 1.24 1.24 0 1 1 2.5 0z"/><path d="M11.46 17.06h9.02c.53 0 .96-.43.96-.96v-3.95a.96.96 0 0 0-.96-.96h-9.02a.96.96 0 0 0-.96.96v3.95c0 .53.43.96.96.96zm-.02-4.91c0-.01 0-.02.02-.02h9.02c.01 0 .02 0 .02.02v3.95c0 .01 0 .03-.02.03h-9.02a.02.02 0 0 1-.02-.03v-3.95zm.02 11.72h9.02c.53 0 .96-.43.96-.96v-3.95a.96.96 0 0 0-.96-.96h-3.57a.47.47 0 0 0 0 .94h3.56c.02 0 .02 0 .02.02v3.95c0 .02 0 .03-.02.03h-9.01a.02.02 0 0 1-.02-.02v-3.96c0-.01 0-.02.02-.02h3.71a.47.47 0 0 0 0-.94h-3.71a.96.96 0 0 0-.96.96v3.95c0 .53.43.96.96.96zm6.22-21.06a.47.47 0 0 0 0-.94h-3.27a.47.47 0 0 0 0 .94h3.27z"/></symbol><symbol id="icon-work6" viewBox="0 0 32 32"><path d="m27.94 12.62-10.6-10.6a2.8 2.8 0 0 0-4.8 2.01c0 .58.18 1.11.48 1.56v-.01l-.02.07a19.65 19.65 0 0 1-5.38 10.06l-4.87 4.86a2.8 2.8 0 0 0 0 3.98L5.4 27.2a2.8 2.8 0 0 0 3.98 0l.66-.66 4.64 4.64a2.8 2.8 0 0 0 4.8-1.99 2.8 2.8 0 0 0-.83-1.99l-1.98-1.99.66-.66a2.8 2.8 0 0 0 0-3.98l-.45-.44c2.1-1.5 4.6-2.6 7.3-3.15l.12-.02.07-.02a2.82 2.82 0 0 0 3.56-4.32zM8.05 25.87a.93.93 0 0 1-1.32 0l-2.65-2.65a.94.94 0 0 1 0-1.32l4.64-4.64 3.97 3.98-4.64 4.64zm9.28 2.65A.94.94 0 1 1 16 29.85l-4.64-4.64 1.33-1.32 4.64 4.64zm-3.3-5.96c.27-.28.69-.71 1.36-1.28l.62.62c.36.36.36.96 0 1.32l-.67.67-1.32-1.33zm.03-2.61L10 15.89a21.45 21.45 0 0 0 4.56-8.69l8.18 8.19a21.5 21.5 0 0 0-8.72 4.58l.03-.02zm12.55-4.68a.93.93 0 0 1-1.32 0l-10.6-10.6a.94.94 0 1 1 1.3-1.33l10.62 10.6c.37.37.37.97 0 1.33z"/><path d="M9.38 20.57a.94.94 0 0 0-1.33 0L6.73 21.9a.94.94 0 1 0 1.32 1.32l1.33-1.32a.95.95 0 0 0 0-1.33zM21.64 0a.94.94 0 0 0-.94.94V2.8a.94.94 0 0 0 1.88 0V.94a.94.94 0 0 0-.94-.94zm7.5 7.5h-1.89a.94.94 0 0 0 0 1.87h1.88a.94.94 0 0 0 0-1.87zm-1.21-5.35a.94.94 0 0 0-1.33 0l-1.88 1.87a.94.94 0 0 0 .63 1.64c.28 0 .52-.12.7-.3v-.01l1.87-1.88a.94.94 0 0 0 0-1.32z"/></symbol></defs></svg>