<svg width="26" height="26" fill="none" xmlns="http://www.w3.org/2000/svg"><path d="M17.88 26H8.13A8.13 8.13 0 0 1 0 17.87V8.13A8.13 8.13 0 0 1 8.13 0h9.74A8.13 8.13 0 0 1 26 8.13v9.74A8.13 8.13 0 0 1 17.87 26Zm5.68-17.88a5.7 5.7 0 0 0-5.68-5.68H8.13a5.7 5.7 0 0 0-5.7 5.69v9.74a5.7 5.7 0 0 0 5.7 5.7h9.74a5.7 5.7 0 0 0 5.7-5.7V8.13Z" fill="#000"/><path d="M13 19.5a6.5 6.5 0 1 1 0-13 6.5 6.5 0 0 1 0 13Zm0-10.56a4.07 4.07 0 1 0 .01 8.13A4.07 4.07 0 0 0 13 8.94ZM19.99 19.12a.87.87 0 1 1 0 1.73.87.87 0 0 1 0-1.73Z" fill="#000"/></svg>