<svg width="44" height="44" fill="none" xmlns="http://www.w3.org/2000/svg"><path d="M40.13 0H3.87A3.87 3.87 0 0 0 0 3.87v36.26A3.87 3.87 0 0 0 3.87 44h36.26A3.87 3.87 0 0 0 44 40.13V3.87A3.87 3.87 0 0 0 40.13 0Zm1.3 40.13a1.3 1.3 0 0 1-1.3 1.3H3.87a1.3 1.3 0 0 1-1.3-1.3V3.87c0-.71.59-1.3 1.3-1.3h36.26c.71 0 1.3.59 1.3 1.3v36.26Z" fill="#282828"/><path d="M31.02 18.13c-.94 0-1.82.26-2.57.7v-7.14a1.29 1.29 0 0 0-2.58 0V32.3a1.29 1.29 0 1 0 2.58 0V23.3a2.58 2.58 0 0 1 5.15 0v9.02a1.29 1.29 0 1 0 2.58 0V23.3a5.16 5.16 0 0 0-5.16-5.16ZM22 24.58c-.71 0-1.29.58-1.29 1.29a5.16 5.16 0 0 1-10.31 0v-7.74a5.16 5.16 0 0 1 10.31 0 1.29 1.29 0 0 0 2.58 0 7.74 7.74 0 0 0-15.47 0v7.74a7.74 7.74 0 0 0 15.47 0c0-.71-.58-1.3-1.29-1.3Z" fill="#282828"/></svg>