<svg width="54" height="54" fill="none" xmlns="http://www.w3.org/2000/svg"><g clip-path="url(#a)" fill="#282828"><path d="m53.3 32-.04-.03v-.01l-5.4-5.55h-.01a.85.85 0 0 0-.6-.25h-6.74V15.91l3.75 2.5.02.02.01.01c.04.03.09.04.13.06.03 0 .05.02.07.03a.83.83 0 0 0 .44 0l.07-.02.12-.05.08-.05.1-.07.06-.08.06-.07.01-.02.02-.02 5.06-8.44.04-.12c.02-.05.05-.1.06-.16v-.32l-.06-.15-.07-.14-.11-.13-.09-.1-9.27-6.75-.04-.02-.16-.07-.16-.05-.04-.02-6.76-.84h-13.7l-6.76.84-.04.02c-.05 0-.1.03-.16.05l-.15.07-.04.02L3.72 8.6l-.09.1c-.04.03-.08.07-.1.12-.04.04-.06.1-.08.14l-.05.15-.01.16v.16l.06.16c.02.04.02.08.05.12l5.06 8.44.01.02.01.01.07.08.06.07.1.08.07.05.13.05.06.02a.85.85 0 0 0 .44 0l.07-.04.13-.05.02-.01.02-.01 3.75-2.51v10.23H6.75c-.1 0-.2.03-.3.07a.83.83 0 0 0-.3.19l-5.4 5.54-.02.03L.7 32 .7 32c-.43.45-.7 1.06-.7 1.74v16.88c0 1.4 1.14 2.53 2.53 2.53h48.94c1.4 0 2.53-1.14 2.53-2.53V33.75c0-.67-.27-1.28-.7-1.73V32Zm-38.11-3.31V14.34l-.02-.07a.95.95 0 0 0-.1-.33l-.02-.07-.06-.05a.78.78 0 0 0-.25-.21.8.8 0 0 0-.32-.1l-.08-.01-.07.01a.88.88 0 0 0-.32.1c-.03.01-.05.01-.07.03l-4.33 2.9-4.21-7.02 8.48-6.18 5.64-.7a7.6 7.6 0 0 0 15.06 0l5.67.7 8.48 6.18-4.21 7.01-4.33-2.9c-.02 0-.05 0-.07-.02a.8.8 0 0 0-.16-.07.8.8 0 0 0-.16-.03l-.08-.01-.08.01a.8.8 0 0 0-.44.18.81.81 0 0 0-.12.13l-.06.05c-.02.02-.02.05-.03.07a.8.8 0 0 0-.1.32l-.01.08v14.35H15.19Zm5.96-26.16h11.68a5.91 5.91 0 0 1-11.68 0ZM13.5 28.69h-1.69a.84.84 0 1 0 0 1.68H42.2a.84.84 0 1 0 0-1.68H40.5v-.85h6.38l3.29 3.38H3.82l3.29-3.38h6.4v.85ZM7.6 50.63h38.8v.84H7.6v-.84Zm44.71 0c0 .46-.38.84-.84.84h-3.38v-1.69a.84.84 0 0 0-.84-.84H6.75a.84.84 0 0 0-.84.84v1.69H2.53a.84.84 0 0 1-.84-.84V33.75c0-.23.09-.43.24-.58l.02-.03a.84.84 0 0 1 .58-.23h48.94c.23 0 .44.09.59.24l.01.01c.15.15.24.36.24.59v16.88Z"/><path d="M6.78 37.12h-.01a.84.84 0 0 0-.84.85.85.85 0 0 0 1.7 0 .84.84 0 0 0-.85-.85ZM10.15 37.12a.84.84 0 0 0-.85.85.85.85 0 0 0 1.7 0 .84.84 0 0 0-.85-.85ZM47.28 37.12h-.01a.84.84 0 0 0-.84.85.85.85 0 0 0 1.7 0 .84.84 0 0 0-.85-.85ZM43.9 37.12a.84.84 0 0 0-.85.85.85.85 0 0 0 1.7 0 .84.84 0 0 0-.85-.85ZM35.44 35.44H18.56a.84.84 0 0 0-.84.84v3.38c0 .46.38.84.84.84h16.88c.46 0 .84-.38.84-.84v-3.38a.84.84 0 0 0-.84-.84Zm-.85 3.37H19.41v-1.69h15.18v1.7Z"/></g><defs><clipPath id="a"><path fill="#fff" d="M0 0h54v54H0z"/></clipPath></defs></svg>