<svg width="60" height="60" fill="none" xmlns="http://www.w3.org/2000/svg"><path d="M52.38 23.66 32.5 3.78a5.28 5.28 0 0 0-8.1 6.68l-.03.14a36.79 36.79 0 0 1-10.09 18.85l-9.12 9.12a5.27 5.27 0 0 0 0 7.46L10.13 51a5.27 5.27 0 0 0 7.46 0l1.24-1.24 8.7 8.7A5.27 5.27 0 1 0 34.98 51l-3.72-3.73 1.24-1.24a5.27 5.27 0 0 0 0-7.46l-.85-.84a36.8 36.8 0 0 1 13.91-5.94l.14-.03a5.28 5.28 0 0 0 6.68-8.1ZM15.1 48.51c-.69.69-1.8.69-2.48 0l-4.97-4.97a1.76 1.76 0 0 1 0-2.48l8.7-8.7 7.45 7.46-8.7 8.7Zm17.4 4.97A1.76 1.76 0 0 1 30 55.97l-8.7-8.7 2.49-2.48 8.7 8.7ZM26.29 42.3c.52-.53 1.31-1.34 2.56-2.4l1.16 1.16c.69.68.69 1.8 0 2.48l-1.24 1.25-2.48-2.49Zm.07-4.9-7.6-7.6c4.07-4.7 6.99-10.26 8.55-16.3l15.35 15.35a40.24 40.24 0 0 0-16.3 8.55Zm23.53-8.77c-.68.69-1.8.69-2.48 0L27.53 8.75A1.76 1.76 0 1 1 30 6.26L49.9 26.15c.69.68.69 1.8 0 2.48Z" fill="#282828"/><path d="M17.59 38.57a1.76 1.76 0 0 0-2.49 0l-2.48 2.49a1.76 1.76 0 1 0 2.48 2.48l2.49-2.48c.68-.69.68-1.8 0-2.49ZM40.57 0c-.97 0-1.76.79-1.76 1.76v3.51a1.76 1.76 0 0 0 3.52 0V1.76c0-.97-.8-1.76-1.76-1.76ZM54.63 14.06H51.1a1.76 1.76 0 0 0 0 3.51h3.52a1.76 1.76 0 0 0 0-3.51ZM52.36 4.03a1.76 1.76 0 0 0-2.49 0l-3.51 3.51a1.76 1.76 0 1 0 2.48 2.49l3.52-3.52c.68-.68.68-1.8 0-2.48Z" fill="#282828"/></svg>