<svg width="56" height="56" fill="none" xmlns="http://www.w3.org/2000/svg"><path d="M27.94 16.71a2.7 2.7 0 0 0 2.7-2.7v-1.09c0-.63-.5-1.14-1.14-1.14H26.4c-.63 0-1.15.51-1.15 1.14v1.09a2.7 2.7 0 0 0 2.7 2.7Zm-1.06-3.3h2.13v.6a1.06 1.06 0 0 1-2.13 0v-.6ZM34.91 13.5c.45 0 .82-.36.82-.81v-1.24a.82.82 0 0 0-1.64 0v1.24c0 .45.37.82.82.82ZM20.98 13.5c.45 0 .82-.36.82-.81v-1.24a.82.82 0 1 0-1.64 0v1.24c0 .45.37.82.82.82ZM34.3 15.86h1.23a.82.82 0 1 0 0-1.65H34.3a.82.82 0 0 0 0 1.65ZM20.36 15.86h1.24a.82.82 0 1 0 0-1.65h-1.24a.82.82 0 0 0 0 1.65Z" fill="#282828"/><path d="M44.35 13.53c.46 0 .82-.36.82-.82V4.24c0-2.34-1.9-4.24-4.24-4.24H14.96a4.25 4.25 0 0 0-4.24 4.24v47.52c0 2.34 1.9 4.24 4.24 4.24h25.97c2.34 0 4.24-1.9 4.24-4.24V15.77a.82.82 0 1 0-1.64 0v35.99a2.6 2.6 0 0 1-2.6 2.6H14.96a2.6 2.6 0 0 1-2.6-2.6V4.24a2.6 2.6 0 0 1 2.6-2.6h25.97a2.6 2.6 0 0 1 2.6 2.6v8.47c0 .46.37.82.82.82Z" fill="#282828"/><path d="M41.9 43.71V7.91c0-.74-.62-1.35-1.36-1.35H15.35c-.74 0-1.35.6-1.35 1.35v35.8c0 .75.6 1.35 1.35 1.35h25.19c.74 0 1.35-.6 1.35-1.35Zm-1.65-.29h-24.6V8.2h24.6v35.22ZM24.14 49.71a3.81 3.81 0 1 0 7.62 0 3.81 3.81 0 0 0-7.62 0Zm5.98 0a2.17 2.17 0 1 1-4.35 0 2.17 2.17 0 0 1 4.35 0Z" fill="#282828"/><path d="M20.05 29.86h15.79c.92 0 1.68-.75 1.68-1.68v-6.92c0-.93-.76-1.68-1.68-1.68H20.05c-.92 0-1.68.75-1.68 1.68v6.92c0 .93.76 1.68 1.68 1.68Zm-.03-8.6c0-.02.01-.04.03-.04h15.79c.02 0 .03.02.03.04v6.92c0 .02-.01.04-.03.04H20.05a.04.04 0 0 1-.03-.04v-6.92ZM20.05 41.78h15.79c.92 0 1.68-.75 1.68-1.68v-6.92c0-.93-.76-1.68-1.68-1.68H29.6a.82.82 0 0 0 0 1.64h6.23c.02 0 .03.02.03.04v6.92c0 .02-.01.04-.03.04H20.05a.04.04 0 0 1-.03-.04v-6.92c0-.02.01-.04.03-.04h6.5a.82.82 0 1 0 0-1.64h-6.5c-.92 0-1.68.75-1.68 1.68v6.92c0 .93.76 1.68 1.68 1.68ZM30.94 4.92a.82.82 0 1 0 0-1.64h-5.72a.82.82 0 1 0 0 1.64h5.72Z" fill="#282828"/></svg>