<svg aria-hidden="true" style="position: absolute; width: 0; height: 0; overflow: hidden;" version="1.1" xmlns="http://www.w3.org/2000/svg" xmlns:xlink="http://www.w3.org/1999/xlink">
<defs>
<symbol id="icon-envelop" viewBox="0 0 32 32">
<path d="M28.544 3.307h-25.088c-1.729 0.012-3.126 1.416-3.126 3.147 0 0.011 0 0.023 0 0.034v-0.002l-0.011 19.040c0 0 0 0 0 0 0 1.738 1.4 3.15 3.134 3.168h25.090c1.736-0.018 3.136-1.429 3.136-3.168 0-0 0-0 0-0v0-19.040c0-0.003 0-0.007 0-0.011 0-1.738-1.4-3.15-3.134-3.168h-0.002zM28.544 9.653l-12.544 7.936-12.544-7.936v-3.168l12.544 7.915 12.544-7.925v3.168z"></path>
</symbol>
<symbol id="icon-facebook" viewBox="0 0 32 32">
<path d="M18.005 11.002v-4c0-1.111 0.894-2.005 1.995-2.005h2.005v-4.998h-4.009c0 0 0 0 0 0-3.311 0-5.995 2.684-5.995 5.995 0 0.003 0 0.007 0 0.010v-0 4.988h-4v5.007h4v16h6.005v-16h3.991l2.005-4.998h-6.005z"></path>
</symbol>
<symbol id="icon-header1" viewBox="0 0 32 32">
<path d="M16 0c-8.8 0-16 7.2-16 16s7.2 16 16 16 16-7.2 16-16-7.2-16-16-16zM26.857 6.971c1.99 2.368 3.216 5.436 3.268 8.789l0 0.011c-1.321-0.31-2.837-0.488-4.395-0.488-2.119 0-4.161 0.329-6.078 0.938l0.142-0.039c-0.603-1.635-1.166-2.932-1.786-4.195l0.117 0.264c3.383-1.303 7.040-3.2 8.731-5.28zM16 1.874c3.657 0 7.017 1.417 9.554 3.726-0.983 1.326-3.794 3.291-8.274 4.96-1.648-3.040-3.514-5.664-5.655-8.036l0.032 0.036c1.371-0.457 2.834-0.686 4.343-0.686zM9.829 3.314c2.194 2.354 4.114 5.029 5.669 7.863-4.663 1.509-9.394 2.126-13.28 1.737 0.985-4.25 3.778-7.704 7.506-9.563l0.082-0.037zM1.851 16c0-0.411 0-0.823 0.046-1.234 0.869 0.091 1.76 0.137 2.674 0.137 3.657 0 7.771-0.686 11.771-2.034 0.617 1.257 1.166 2.56 1.646 3.886-1.554 0.549-3.086 1.28-4.526 2.126-3.102 1.695-5.556 4.244-7.088 7.331l-0.044 0.098c-2.746-2.576-4.457-6.227-4.457-10.279 0-0.011 0-0.021 0-0.032v0.002zM16 30.126c-3.042-0.001-5.857-0.969-8.157-2.612l0.043 0.029c0.709-2.4 3.131-5.006 6.56-7.063 1.211-0.709 2.651-1.394 4.183-1.943 1.097 3.429 1.783 7.086 1.989 10.811-1.44 0.503-2.994 0.777-4.617 0.777zM22.446 28.571c-0.274-3.657-0.937-7.2-2.034-10.606 1.592-0.488 3.422-0.769 5.318-0.769 1.519 0 2.996 0.18 4.41 0.521l-0.128-0.026c-0.595 4.758-3.474 8.735-7.488 10.843l-0.078 0.037z"></path>
</symbol>
<symbol id="icon-header2" viewBox="0 0 32 32">
<path d="M26.126 3.634c-0.549-0.457-1.143-0.869-1.714-1.257l-1.074 1.714c0.549 0.32 1.051 0.686 1.531 1.074l1.257-1.531zM29.029 6.72c-0.411-0.571-0.869-1.143-1.349-1.646l-1.463 1.371c0.434 0.457 0.823 0.937 1.189 1.44l1.623-1.143z"></path>
<path d="M30.171 8.549l-1.783 0.914c1.031 1.902 1.638 4.164 1.638 6.568 0 7.726-6.263 13.989-13.989 13.989s-13.989-6.263-13.989-13.989c0-7.726 6.263-13.989 13.989-13.989 2.055 0 4.007 0.443 5.765 1.239l-0.088-0.036 0.8-1.829c-1.918-0.878-4.16-1.39-6.522-1.39-8.837 0-16 7.163-16 16s7.163 16 16 16c8.837 0 16-7.163 16-16 0-2.727-0.682-5.295-1.885-7.542l0.042 0.086z"></path>
<path d="M14.994 10.354c-0.754-0.846-1.829-1.349-2.971-1.349h-5.029v13.989h5.029c2.189-0.026 3.954-1.807 3.954-4 0-1.19-0.519-2.258-1.344-2.991l-0.004-0.004c1.646-1.463 1.829-3.977 0.343-5.646zM12.023 21.029h-3.040v-4.023h2.994c1.105 0 2 0.895 2 2s-0.895 2-2 2v0zM12.023 15.017h-3.040v-4h2.994c1.098 0 1.989 0.89 1.989 1.989s-0.89 1.989-1.989 1.989v0zM26.994 18.011c0.004-0.070 0.006-0.153 0.006-0.236 0-2.544-1.988-4.623-4.496-4.769l-0.013-0.001c-2.51 0.158-4.486 2.232-4.486 4.768 0 0.084 0.002 0.167 0.006 0.249l-0-0.012c-0.003 0.064-0.005 0.139-0.005 0.215 0 2.535 1.975 4.61 4.471 4.768l0.014 0.001c1.143 0 2.24-0.457 3.040-1.28l-1.417-1.417c-0.405 0.424-0.97 0.693-1.597 0.709l-0.003 0c-1.143-0.069-2.126-0.891-2.377-2.011h6.857v-0.983zM20.137 17.006c0.251-1.12 1.211-1.92 2.354-1.989 1.143 0.069 2.103 0.869 2.354 1.989h-4.709zM25.006 9.006h-5.006v2.011h5.006v-2.011z"></path>
</symbol>
<symbol id="icon-instagram" viewBox="0 0 32 32">
<path d="M22.006 32h-12c-5.526 0-10.006-4.48-10.006-10.006v0-11.988c0-5.526 4.48-10.006 10.006-10.006v0h11.988c5.526 0 10.006 4.48 10.006 10.006v0 11.988c0 5.526-4.48 10.006-10.006 10.006v0zM28.997 9.994c-0.014-3.855-3.136-6.977-6.989-6.991h-12.001c0 0 0 0 0 0-3.87 0-7.008 3.134-7.015 7.002v11.988c0 3.875 3.141 7.015 7.015 7.015v0h11.988c3.875 0 7.015-3.141 7.015-7.015v0-11.988z"></path>
<path d="M16 24c-4.418 0-8-3.582-8-8s3.582-8 8-8v0c4.418 0 8 3.582 8 8s-3.582 8-8 8v0zM16 11.003c-0.072-0.004-0.157-0.006-0.242-0.006-2.767 0-5.009 2.243-5.009 5.009s2.243 5.009 5.009 5.009c0.089 0 0.178-0.002 0.267-0.007l-0.012 0.001c2.655-0.139 4.755-2.326 4.755-5.003 0-2.681-2.107-4.871-4.755-5.003l-0.012-0zM24.603 23.532c0.034-0.004 0.074-0.006 0.115-0.006 0.591 0 1.071 0.479 1.071 1.071s-0.479 1.071-1.071 1.071c-0.040 0-0.080-0.002-0.119-0.007l0.005 0c-0.54-0.060-0.956-0.514-0.956-1.065s0.416-1.005 0.951-1.064l0.005-0z"></path>
</symbol>
<symbol id="icon-phone" viewBox="0 0 32 32">
<path d="M30.6 23.2l-4.31-4.3c-1.54-1.53-4.16-0.91-4.77 1.080-0.426 1.126-1.495 1.911-2.747 1.911-0.228 0-0.45-0.026-0.663-0.075l0.020 0.004c-3.070-0.76-7.23-4.76-8-7.98-0.46-1.38 0.46-2.92 1.85-3.38 2-0.61 2.61-3.22 1.080-4.76l-4.31-4.3c-1.23-1.060-3.080-1.060-4.15 0l-2.93 2.93c-2.92 3.070 0.31 11.2 7.54 18.42s15.38 10.6 18.46 7.53l2.92-2.92c1.080-1.23 1.080-3.070 0-4.15z"></path>
</symbol>
<symbol id="icon-pinterest" viewBox="0 0 32 32">
<path d="M16.43 0c-8.77 0-13.43 5.62-13.43 11.75 0 2.84 1.59 6.39 4.13 7.51 0.73 0.33 0.63-0.070 1.25-2.46 0.015-0.048 0.023-0.104 0.023-0.161 0-0.15-0.058-0.287-0.154-0.389l0 0c-3.65-4.2-0.71-12.85 7.67-12.85 12.12 0 9.85 16.77 2.1 16.77-2 0-3.48-1.56-3-3.5 0.56-2.31 1.68-4.8 1.68-6.46 0-4.2-6.25-3.58-6.25 1.98 0 1.72 0.6 2.88 0.6 2.88l-2.38 9.65c-0.63 2.57 0.080 6.73 0.15 7.090 0.030 0.2 0.26 0.26 0.38 0.1 0.2-0.26 2.63-3.73 3.31-6.24l1.27-4.62c0.67 1.21 2.6 2.22 4.66 2.22 6.13 0 10.56-5.37 10.56-12.070-0.020-6.4-5.5-11.2-12.57-11.2z"></path>
</symbol>
<symbol id="icon-right-arrow" viewBox="0 0 32 32">
<path stroke-linejoin="miter" stroke-linecap="butt" stroke-miterlimit="4" stroke-width="1.6842" d="M9.263 1.684l13.474 14.316-13.474 14.316"></path>
</symbol>
<symbol id="icon-right-arrow-2" viewBox="0 0 32 32">
<path d="M30.4 16.862c0.218-0.222 0.352-0.526 0.352-0.862s-0.134-0.64-0.352-0.862l0 0-7.828-7.852c-0.227-0.26-0.559-0.423-0.929-0.423-0.68 0-1.231 0.551-1.231 1.231 0 0.376 0.169 0.713 0.435 0.939l0.002 0.001 6.917 6.966-6.942 6.966c-0.26 0.227-0.423 0.559-0.423 0.929 0 0.68 0.551 1.231 1.231 1.231 0.376 0 0.713-0.169 0.939-0.435l0.001-0.002 7.828-7.828zM0 17.231h29.538v-2.462h-29.538v2.462z"></path>
</symbol>
<symbol id="icon-search" viewBox="0 0 32 32">
<path d="M20.667 18.667h-1.053l-0.373-0.36c1.299-1.507 2.090-3.483 2.090-5.644 0-4.786-3.88-8.667-8.667-8.667s-8.667 3.88-8.667 8.667c0 4.786 3.88 8.667 8.667 8.667 2.161 0 4.137-0.791 5.655-2.099l-0.011 0.009 0.36 0.373v1.053l6.667 6.653 1.987-1.987-6.653-6.667zM12.667 18.667c-0.086 0.004-0.188 0.007-0.289 0.007-3.314 0-6-2.686-6-6s2.686-6 6-6c0.097 0 0.194 0.002 0.29 0.007l-0.014-0c3.193 0.152 5.724 2.777 5.724 5.994 0 3.212-2.524 5.834-5.697 5.992l-0.014 0.001z"></path>
</symbol>
<symbol id="icon-twitter" viewBox="0 0 32 32">
<path stroke-linejoin="round" stroke-linecap="butt" stroke-miterlimit="4" stroke-width="1.8824" d="M31.059 6.664c-1.12 0.489-2.315 0.819-3.558 0.969 1.281-0.767 2.243-1.952 2.708-3.364l0.012-0.043c-1.127 0.681-2.439 1.2-3.836 1.483l-0.079 0.013c-1.132-1.21-2.738-1.964-4.52-1.964-3.415 0-6.184 2.768-6.184 6.184 0 0.5 0.059 0.986 0.171 1.451l-0.009-0.042c-5.145-0.26-9.671-2.708-12.7-6.425l-0.025-0.032c-0.529 0.893-0.842 1.968-0.842 3.116 0 2.132 1.079 4.013 2.722 5.124l0.022 0.014c-1.030-0.028-1.989-0.307-2.826-0.778l0.031 0.016v0.066c0.007 2.977 2.109 5.46 4.91 6.054l0.041 0.007c-0.48 0.134-1.031 0.211-1.6 0.211-0.423 0-0.836-0.043-1.235-0.124l0.040 0.007c0.818 2.474 3.078 4.24 5.761 4.31l0.008 0c-2.083 1.64-4.745 2.631-7.639 2.631-0.525 0-1.043-0.033-1.551-0.096l0.061 0.006c2.662 1.741 5.922 2.777 9.425 2.777 0.015 0 0.031-0 0.046-0h-0.002c11.369 0 17.581-9.412 17.581-17.572 0-0.273-0.009-0.536-0.028-0.8 1.224-0.866 2.259-1.948 3.096-3.2z"></path>
</symbol>
<symbol id="icon-work1" viewBox="0 0 32 32">
<path d="M0 1.84v28.32h32v-28.32h-32zM21.215 3.716l-3.527 4.255h-15.811v-4.255h19.338zM30.124 28.284h-28.247v-18.436h16.691l5.084-6.131h6.473v24.567z"></path>
<path d="M4.022 4.909h1.869v1.891h-1.869v-1.891zM7.476 4.909h1.876v1.891h-1.876v-1.891zM10.938 4.909h1.876v1.891h-1.876v-1.891zM12.785 20.342c-0.080 0.816-0.763 1.448-1.593 1.448s-1.512-0.632-1.592-1.441l-0.001-0.007v-5.84h-1.876v5.84c0 1.916 1.553 3.469 3.469 3.469s3.469-1.553 3.469-3.469v0-5.84h-1.876v5.84zM21.745 14.473l-1.527 2.749-1.535-2.756h-2.145l2.604 4.691-2.604 4.691h2.145l1.527-2.764 1.527 2.764h2.153l-2.604-4.691 2.604-4.691h-2.145z"></path>
</symbol>
<symbol id="icon-work2" viewBox="0 0 32 32">
<path d="M30.627 0.747c-0.459-0.461-1.094-0.746-1.796-0.746-0.611 0-1.171 0.216-1.609 0.576l0.004-0.003-8.96 7.313h-15.133c-0.002 0-0.004 0-0.007 0-1.384 0-2.507 1.122-2.507 2.507 0 0.002 0 0.005 0 0.007v-0 15.087c0.004 1.379 1.121 2.496 2.5 2.5h7.114v2.147h-1.567c-0.515 0-0.933 0.418-0.933 0.933s0.418 0.933 0.933 0.933v0h10.027c0.517 0 0.937-0.419 0.937-0.937s-0.419-0.937-0.937-0.937v0h-1.573v-2.147h7.113c1.379-0.004 2.496-1.121 2.5-2.5v-16.347l4.067-4.987c0.357-0.433 0.573-0.994 0.573-1.604 0-0.702-0.285-1.337-0.746-1.795l-0-0zM17.667 11.64c0.027-0.567 0.287-1.067 0.727-1.427l1.56-1.28 2.487 2.493-1.273 1.567c-0.344 0.421-0.854 0.695-1.429 0.72l-0.004 0c-0.033 0.002-0.072 0.003-0.111 0.003-0.541 0-1.030-0.22-1.383-0.576l-0-0c-0.4-0.4-0.6-0.933-0.573-1.5zM16.913 17.687c-0.413 0.42-1.107 0.607-2.053 0.573-0.72-0.033-1.333 0.020-1.86 0.113 0.093-0.52 0.147-1.133 0.113-1.853-0.033-0.953 0.153-1.647 0.573-2.060 0.411-0.417 0.982-0.675 1.613-0.675s1.202 0.258 1.613 0.674l0 0c0.412 0.413 0.666 0.984 0.666 1.613s-0.255 1.2-0.666 1.613l0-0zM15.247 30.127h-3.133v-2.147h3.133v2.147zM24.86 25.48c0 0.34-0.28 0.627-0.627 0.627h-21.107c-0.346 0-0.627-0.281-0.627-0.627v0-0.8h22.36v0.8zM24.86 22.8h-22.36v-12.4c0-0.347 0.28-0.627 0.627-0.627h13.213c-0.346 0.567-0.552 1.253-0.552 1.987 0 0.068 0.002 0.136 0.005 0.203l-0-0.009c-0.151-0.020-0.326-0.031-0.504-0.031-1.145 0-2.181 0.465-2.929 1.217l-0 0c-0.8 0.8-1.18 1.967-1.12 3.46 0.080 1.987-0.58 2.787-0.627 2.847-0.168 0.169-0.272 0.402-0.272 0.66 0 0.517 0.419 0.936 0.936 0.936 0.259 0 0.494-0.105 0.663-0.276l0-0c0.053-0.047 0.853-0.707 2.84-0.627 1.493 0.060 2.66-0.32 3.46-1.12 0.933-0.933 1.333-2.207 1.187-3.427 0.064 0.004 0.139 0.006 0.215 0.006 1.198 0 2.268-0.548 2.973-1.406l0.005-0.007 2.24-2.753v11.367zM11.953 20.747v0zM10.627 19.42v0zM29.347 2.967l-5.713 7-2.22-2.22 7-5.72c0.11-0.083 0.249-0.133 0.4-0.133 0.368 0 0.667 0.298 0.667 0.667 0 0.151-0.050 0.29-0.135 0.402l0.001-0.002z"></path>
</symbol>
<symbol id="icon-work3" viewBox="0 0 32 32">
<path d="M29.185 0h-26.371c-1.554 0-2.815 1.26-2.815 2.815v0 26.371c0 1.554 1.26 2.815 2.815 2.815v0h26.371c1.554 0 2.815-1.26 2.815-2.815v0-26.371c0-1.554-1.26-2.815-2.815-2.815v0zM30.131 29.185c0 0.522-0.423 0.945-0.945 0.945v0h-26.371c-0.522 0-0.945-0.423-0.945-0.945v0-26.371c0-0.516 0.429-0.945 0.945-0.945h26.371c0.516 0 0.945 0.429 0.945 0.945v26.371z"></path>
<path d="M22.56 13.185c-0.684 0-1.324 0.189-1.869 0.509v-5.193c0-0.518-0.42-0.938-0.938-0.938s-0.938 0.42-0.938 0.938v0 14.989c0 0.518 0.42 0.938 0.938 0.938s0.938-0.42 0.938-0.938v-6.545c0.063-0.985 0.878-1.76 1.873-1.76s1.809 0.775 1.872 1.754l0 0.006v6.56c0 0.518 0.42 0.938 0.938 0.938s0.938-0.42 0.938-0.938v-6.56c0-2.073-1.68-3.753-3.753-3.753v0zM16 17.876c-0.516 0-0.938 0.422-0.938 0.938-0.091 2-1.735 3.588-3.749 3.588s-3.658-1.587-3.749-3.579l-0-0.008v-5.629c0.091-2 1.735-3.588 3.749-3.588s3.658 1.587 3.749 3.579l0 0.008c0 0.518 0.42 0.938 0.938 0.938s0.938-0.42 0.938-0.938v0c-0.112-3.021-2.588-5.427-5.625-5.427s-5.513 2.406-5.625 5.417l-0 0.010v5.629c0.112 3.021 2.588 5.427 5.625 5.427s5.513-2.406 5.625-5.417l0-0.010c0-0.516-0.422-0.945-0.938-0.945z"></path>
</symbol>
<symbol id="icon-work4" viewBox="0 0 32 32">
<path d="M31.585 18.963l-0.024-0.018v-0.006l-3.2-3.289h-0.006c-0.091-0.091-0.217-0.148-0.355-0.148h-3.994v-6.074l2.222 1.481 0.018 0.018c0.024 0.018 0.053 0.024 0.077 0.036 0.018 0 0.030 0.012 0.041 0.018 0.039 0.011 0.084 0.018 0.13 0.018s0.091-0.006 0.134-0.018l-0.003 0.001 0.041-0.012 0.071-0.030 0.047-0.030 0.059-0.041 0.036-0.047 0.036-0.041 0.006-0.012 0.012-0.012 2.999-5.001 0.024-0.071c0.012-0.030 0.030-0.059 0.036-0.095v-0.19l-0.036-0.089-0.041-0.083-0.065-0.077-0.053-0.059-5.517-4.012-0.095-0.041-0.095-0.030-0.024-0.012-4.006-0.498h-8.119l-4.006 0.498-0.024 0.012c-0.030 0-0.059 0.018-0.095 0.030l-0.089 0.041-0.024 0.012-5.499 4.006-0.053 0.059c-0.024 0.018-0.047 0.041-0.059 0.071-0.024 0.024-0.036 0.059-0.047 0.083l-0.030 0.089-0.006 0.095v0.095l0.036 0.095c0.012 0.024 0.012 0.047 0.030 0.071l3.010 5.019 0.041 0.047 0.036 0.041 0.059 0.047 0.041 0.030 0.077 0.030 0.036 0.012c0.039 0.011 0.084 0.017 0.13 0.017s0.091-0.006 0.134-0.018l-0.004 0.001 0.041-0.024 0.077-0.030 0.024-0.012 2.222-1.487v6.062h-4c-0.059 0-0.119 0.018-0.178 0.041-0.069 0.026-0.129 0.064-0.178 0.113l0-0-3.2 3.283-0.012 0.018-0.018 0.018c-0.255 0.267-0.415 0.628-0.415 1.031v10.003c0 0.83 0.676 1.499 1.499 1.499h29.001c0.83 0 1.499-0.676 1.499-1.499v-9.997c0-0.397-0.16-0.759-0.415-1.025v-0.012zM9.001 17.001v-8.504l-0.012-0.041c-0.008-0.073-0.029-0.139-0.061-0.199l0.001 0.003-0.012-0.041-0.036-0.030c-0.040-0.051-0.089-0.093-0.146-0.123l-0.002-0.001c-0.055-0.031-0.119-0.053-0.188-0.059l-0.002-0-0.047-0.006-0.041 0.006c-0.071 0.008-0.135 0.029-0.192 0.061l0.003-0.001c-0.018 0.006-0.030 0.006-0.041 0.018l-2.566 1.719-2.495-4.16 5.025-3.662 3.342-0.415c0.311 2.211 2.19 3.894 4.462 3.894s4.151-1.683 4.459-3.87l0.003-0.024 3.36 0.415 5.025 3.662-2.495 4.154-2.566-1.719c-0.012 0-0.030 0-0.041-0.012-0.027-0.016-0.058-0.030-0.091-0.041l-0.003-0.001c-0.028-0.008-0.060-0.015-0.093-0.018l-0.002-0-0.047-0.006-0.047 0.006c-0.1 0.009-0.19 0.048-0.262 0.107l0.001-0.001c-0.026 0.023-0.050 0.048-0.070 0.076l-0.001 0.001-0.036 0.030c-0.012 0.012-0.012 0.030-0.018 0.041-0.031 0.055-0.053 0.119-0.059 0.188l-0 0.002-0.006 0.047v8.504h-14.003zM12.533 1.499h6.921c-0.27 1.689-1.716 2.965-3.461 2.965s-3.191-1.276-3.458-2.945l-0.003-0.020zM8 17.001h-1.001c-0.275 0-0.498 0.223-0.498 0.498s0.223 0.498 0.498 0.498h18.009c0.275 0 0.498-0.223 0.498-0.498s-0.223-0.498-0.498-0.498h-1.007v-0.504h3.781l1.95 2.003h-27.467l1.95-2.003h3.793v0.504zM4.504 30.003h22.993v0.498h-22.993v-0.498zM30.999 30.003c0 0.273-0.225 0.498-0.498 0.498h-2.003v-1.001c0-0.275-0.223-0.498-0.498-0.498v0h-24c-0.275 0-0.498 0.223-0.498 0.498v0 1.001h-2.003c-0.275 0-0.498-0.223-0.498-0.498v0-10.003c0-0.136 0.053-0.255 0.142-0.344l0.012-0.018c0.089-0.084 0.21-0.136 0.342-0.136 0.001 0 0.001 0 0.002 0h29.001c0.136 0 0.261 0.053 0.35 0.142l0.006 0.006c0.089 0.089 0.142 0.213 0.142 0.35v10.003z"></path>
<path d="M4.018 21.997h-0.006c0 0-0 0-0 0-0.275 0-0.498 0.223-0.498 0.498 0 0.002 0 0.004 0 0.006v-0c0 0.278 0.226 0.504 0.504 0.504s0.504-0.226 0.504-0.504v0c0-0.002 0-0.004 0-0.006 0-0.275-0.223-0.498-0.498-0.498-0.002 0-0.004 0-0.006 0h0zM6.015 21.997c-0.002-0-0.004-0-0.006-0-0.275 0-0.498 0.223-0.498 0.498 0 0.002 0 0.004 0 0.006v-0c0 0.278 0.226 0.504 0.504 0.504s0.504-0.226 0.504-0.504v0c0-0.002 0-0.004 0-0.006 0-0.275-0.223-0.498-0.498-0.498-0.002 0-0.004 0-0.006 0h0zM28.018 21.997h-0.006c0 0-0 0-0 0-0.275 0-0.498 0.223-0.498 0.498 0 0.002 0 0.004 0 0.006v-0c0 0.278 0.226 0.504 0.504 0.504s0.504-0.226 0.504-0.504v0c0-0.002 0-0.004 0-0.006 0-0.275-0.223-0.498-0.498-0.498-0.002 0-0.004 0-0.006 0h0zM26.015 21.997c-0.002-0-0.004-0-0.006-0-0.275 0-0.498 0.223-0.498 0.498 0 0.002 0 0.004 0 0.006v-0c0 0.278 0.226 0.504 0.504 0.504s0.504-0.226 0.504-0.504v0c0-0.002 0-0.004 0-0.006 0-0.275-0.223-0.498-0.498-0.498-0.002 0-0.004 0-0.006 0h0zM21.001 21.001h-10.003c-0.275 0-0.498 0.223-0.498 0.498v0 2.003c0 0.273 0.225 0.498 0.498 0.498h10.003c0.273 0 0.498-0.225 0.498-0.498v-2.003c0-0.275-0.223-0.498-0.498-0.498v0zM20.498 22.999h-8.996v-1.001h8.996v1.007z"></path>
</symbol>
<symbol id="icon-work5" viewBox="0 0 32 32">
<path d="M15.966 9.549c0.852 0 1.543-0.691 1.543-1.543v0-0.623c0-0.36-0.286-0.651-0.651-0.651h-1.771c-0.36 0-0.657 0.291-0.657 0.651v0.623c0 0.852 0.691 1.543 1.543 1.543v0zM15.36 7.663h1.217v0.343c0 0.336-0.272 0.609-0.609 0.609s-0.609-0.272-0.609-0.609v0-0.343zM19.949 7.714c0.257 0 0.469-0.206 0.469-0.463v-0.709c0-0.259-0.21-0.469-0.469-0.469s-0.469 0.21-0.469 0.469v0 0.709c0 0.257 0.211 0.469 0.469 0.469zM11.989 7.714c0.257 0 0.469-0.206 0.469-0.463v-0.709c0-0.259-0.21-0.469-0.469-0.469s-0.469 0.21-0.469 0.469v0 0.709c0 0.257 0.211 0.469 0.469 0.469zM19.6 9.063h0.703c0.26 0 0.471-0.211 0.471-0.471s-0.211-0.471-0.471-0.471v0h-0.703c-0.26 0-0.471 0.211-0.471 0.471s0.211 0.471 0.471 0.471v0zM11.634 9.063h0.709c0.26 0 0.471-0.211 0.471-0.471s-0.211-0.471-0.471-0.471v0h-0.709c-0.26 0-0.471 0.211-0.471 0.471s0.211 0.471 0.471 0.471v0z"></path>
<path d="M25.343 7.731c0.263 0 0.469-0.206 0.469-0.469v-4.84c0-1.337-1.086-2.423-2.423-2.423h-14.84c-1.337 0.003-2.42 1.086-2.423 2.423v27.155c0 1.337 1.086 2.423 2.423 2.423h14.84c1.337 0 2.423-1.086 2.423-2.423v-20.566c0-0.259-0.21-0.469-0.469-0.469s-0.469 0.21-0.469 0.469v0 20.566c0 0.821-0.665 1.486-1.486 1.486h-14.84c-0.821 0-1.486-0.665-1.486-1.486v0-27.154c0-0.821 0.665-1.486 1.486-1.486v0h14.84c0.821 0 1.486 0.665 1.486 1.486v0 4.84c0 0.263 0.211 0.469 0.469 0.469z"></path>
<path d="M23.943 24.977v-20.457c0-0.423-0.354-0.771-0.777-0.771h-14.394c-0.423 0-0.771 0.343-0.771 0.771v20.457c0 0.429 0.343 0.771 0.771 0.771h14.394c0.423 0 0.771-0.343 0.771-0.771zM23 24.811h-14.057v-20.126h14.057v20.126zM13.794 28.406c0 1.202 0.975 2.177 2.177 2.177s2.177-0.975 2.177-2.177v0c0-1.202-0.975-2.177-2.177-2.177s-2.177 0.975-2.177 2.177v0zM17.211 28.406c0 0.686-0.556 1.243-1.243 1.243s-1.243-0.556-1.243-1.243v0c0-0.686 0.556-1.243 1.243-1.243s1.243 0.556 1.243 1.243v0z"></path>
<path d="M11.457 17.063h9.023c0.526 0 0.96-0.429 0.96-0.96v-3.954c0-0.531-0.434-0.96-0.96-0.96h-9.023c-0.526 0-0.96 0.429-0.96 0.96v3.954c0 0.531 0.434 0.96 0.96 0.96zM11.44 12.149c0-0.011 0.006-0.023 0.017-0.023h9.023c0.011 0 0.017 0.011 0.017 0.023v3.954c0 0.011-0.006 0.023-0.017 0.023h-9.023c-0.010-0.003-0.017-0.012-0.017-0.022 0-0 0-0 0-0.001v0-3.954zM11.457 23.874h9.023c0.526 0 0.96-0.429 0.96-0.96v-3.954c0-0.531-0.434-0.96-0.96-0.96h-3.566c-0.259 0-0.469 0.21-0.469 0.469s0.21 0.469 0.469 0.469v0h3.56c0.011 0 0.017 0.011 0.017 0.023v3.954c0 0.011-0.006 0.023-0.017 0.023h-9.017c-0.010-0.003-0.017-0.012-0.017-0.022 0-0 0-0 0-0.001v0-3.954c0-0.011 0.006-0.023 0.017-0.023h3.714c0.259 0 0.469-0.21 0.469-0.469s-0.21-0.469-0.469-0.469v0h-3.714c-0.526 0-0.96 0.429-0.96 0.96v3.954c0 0.531 0.434 0.96 0.96 0.96zM17.68 2.811c0.259 0 0.469-0.21 0.469-0.469s-0.21-0.469-0.469-0.469h-3.269c-0.259 0-0.469 0.21-0.469 0.469s0.21 0.469 0.469 0.469h3.269z"></path>
</symbol>
<symbol id="icon-work6" viewBox="0 0 32 32">
<path d="M27.936 12.619l-10.603-10.603c-0.507-0.496-1.202-0.802-1.968-0.802-1.555 0-2.816 1.261-2.816 2.816 0 0.576 0.173 1.112 0.47 1.559l-0.006-0.010-0.016 0.075c-0.808 3.962-2.713 7.39-5.381 10.053l-4.864 4.864c-0.51 0.509-0.825 1.212-0.825 1.989s0.315 1.48 0.825 1.989l2.651 2.651c0.509 0.51 1.212 0.825 1.989 0.825s1.48-0.315 1.989-0.825l0.661-0.661 4.64 4.64c0.509 0.508 1.211 0.822 1.987 0.822 1.553 0 2.811-1.259 2.811-2.811 0-0.777-0.315-1.48-0.825-1.989l-0-0-1.984-1.989 0.661-0.661c0.51-0.509 0.825-1.212 0.825-1.989s-0.315-1.48-0.825-1.989l-0-0-0.453-0.448c2.106-1.491 4.599-2.594 7.292-3.146l0.127-0.022 0.075-0.016c0.436 0.291 0.972 0.464 1.548 0.464 1.555 0 2.816-1.261 2.816-2.816 0-0.766-0.306-1.461-0.802-1.968l0 0.001zM8.053 25.872c-0.368 0.368-0.96 0.368-1.323 0l-2.651-2.651c-0.168-0.17-0.273-0.403-0.273-0.661s0.104-0.492 0.273-0.661l4.64-4.64 3.973 3.979-4.64 4.64zM17.333 28.523c0.169 0.17 0.274 0.405 0.274 0.664 0 0.52-0.421 0.941-0.941 0.941-0.261 0-0.496-0.106-0.667-0.277l-4.64-4.64 1.328-1.323 4.64 4.64zM14.021 22.56c0.277-0.283 0.699-0.715 1.365-1.28l0.619 0.619c0.368 0.363 0.368 0.96 0 1.323l-0.661 0.667-1.323-1.328zM14.059 19.947l-4.053-4.053c2.171-2.507 3.728-5.472 4.56-8.693l8.187 8.187c-3.364 0.885-6.283 2.463-8.719 4.582l0.026-0.022zM26.608 15.269c-0.363 0.368-0.96 0.368-1.323 0l-10.603-10.603c-0.206-0.173-0.337-0.432-0.337-0.72 0-0.518 0.42-0.939 0.939-0.939 0.286 0 0.542 0.128 0.714 0.33l0.001 0.001 10.613 10.608c0.368 0.363 0.368 0.96 0 1.323z"></path>
<path d="M9.381 20.571c-0.17-0.17-0.405-0.275-0.664-0.275s-0.494 0.105-0.664 0.275v0l-1.323 1.328c-0.205 0.173-0.334 0.43-0.334 0.718 0 0.518 0.42 0.939 0.939 0.939 0.287 0 0.544-0.129 0.717-0.332l0.001-0.001 1.328-1.323c0.363-0.368 0.363-0.96 0-1.328zM21.637 0c-0.517 0-0.939 0.421-0.939 0.939v1.872c0 0.518 0.42 0.939 0.939 0.939s0.939-0.42 0.939-0.939v0-1.872c0-0.517-0.427-0.939-0.939-0.939zM29.136 7.499h-1.883c-0.487 0.038-0.868 0.442-0.868 0.936s0.381 0.898 0.865 0.936l0.003 0h1.877c0.487-0.038 0.868-0.442 0.868-0.936s-0.381-0.898-0.865-0.936l-0.003-0zM27.925 2.149c-0.17-0.17-0.405-0.275-0.664-0.275s-0.494 0.105-0.664 0.275l-1.872 1.872c-0.194 0.173-0.315 0.423-0.315 0.702 0 0.518 0.42 0.939 0.939 0.939 0.277 0 0.526-0.12 0.698-0.311l0.001-0.001 1.877-1.877c0.363-0.363 0.363-0.96 0-1.323z"></path>
</symbol>
</defs>
</svg>
